<svg width="24" height="26" viewBox="0 0 24 26" fill="none" xmlns="http://www.w3.org/2000/svg">
<path fill-rule="evenodd" clip-rule="evenodd" d="M12.7 1.90449L22.7 11.7059C22.8919 11.894 23 12.1514 23 12.4201V24.4997C23 24.7758 22.7761 24.9997 22.5 24.9997H15.5C15.2239 24.9997 15 24.7758 15 24.4997V19C15 17.4023 13.7511 16.0963 12.1763 16.0051L12 16C10.4023 16 9.09634 17.2489 9.00509 18.8237L9 19V24.4997C8.99998 24.7758 8.77613 24.9996 8.5 24.9997L1.5 25C1.25454 25 1.05038 24.8231 1.00804 24.5899L1 24.5V12.4201C1 12.1514 1.10813 11.894 1.30002 11.7059L11.3 1.90449C11.6889 1.52337 12.3111 1.52337 12.7 1.90449Z" fill="#0B0B0B" stroke="black" stroke-width="1.5"/>
</svg>
